<svg width="32" height="32" viewBox="0 0 32 32" fill="none" xmlns="http://www.w3.org/2000/svg">
<path d="M6 17L10.3178 15.7663M16.5 14V6M16.5 14L10.3178 15.7663M16.5 14L22.7225 12.2222M27 11L22.7225 12.2222M10.3178 15.7663L13.2959 20.5613C14.0829 21.8285 14.6381 23.3621 13.9912 24.7062C13.424 25.8847 12.3055 26.9437 10.2659 26.8913C8.3156 26.8413 7.20046 25.8663 6.60329 24.7756C5.85838 23.4151 6.44577 21.8048 7.28303 20.4991L10.3178 15.7663ZM22.7225 12.2222L25.7341 16.9744C26.5458 18.2552 27.1198 19.8162 26.4507 21.1769C25.8782 22.3411 24.7617 23.3784 22.7426 23.3266C20.7781 23.2761 19.661 22.2873 19.067 21.187C18.3383 19.837 18.9127 18.2459 19.7327 16.9493L22.7225 12.2222ZM7 22.5H14M18.9 18.9352H26.5" stroke="#B6B6B9" stroke-width="1.5" stroke-linecap="round"/>
</svg>
