<svg width="32" height="32" viewBox="0 0 32 32" fill="none" xmlns="http://www.w3.org/2000/svg">
<path d="M5.5 16.5L9.81784 15.2663M16 13.5V5.5M16 13.5L9.81784 15.2663M16 13.5L22.2225 11.7222M26.5 10.5L22.2225 11.7222M9.81784 15.2663L12.7959 20.0613C13.5829 21.3285 14.1381 22.8621 13.4912 24.2062C12.924 25.3847 11.8055 26.4437 9.76591 26.3913C7.8156 26.3413 6.70046 25.3663 6.10329 24.2756C5.35838 22.9151 5.94577 21.3048 6.78303 19.9991L9.81784 15.2663ZM22.2225 11.7222L25.2341 16.4744C26.0458 17.7552 26.6198 19.3162 25.9507 20.6769C25.3782 21.8411 24.2617 22.8784 22.2426 22.8266C20.2781 22.7761 19.161 21.7873 18.567 20.687C17.8383 19.337 18.4127 17.7459 19.2327 16.4493L22.2225 11.7222ZM6.5 22H13.5M18.4 18.4352H26" stroke="#161616" stroke-width="1.2" stroke-linecap="round"/>
</svg>
