<svg width="32" height="32" viewBox="0 0 32 32" fill="none" xmlns="http://www.w3.org/2000/svg">
<path d="M14.9439 17.5554H17.0547C18.0251 17.5553 18.986 17.7464 19.8825 18.1177C20.779 18.489 21.5936 19.0333 22.2798 19.7195C22.966 20.4057 23.5103 21.2203 23.8816 22.1168C24.2529 23.0133 24.444 23.9742 24.4439 24.9446C24.4439 25.0833 24.4166 25.2205 24.3635 25.3486C24.3105 25.4767 24.2327 25.5931 24.1346 25.6911C24.0366 25.7891 23.9202 25.8668 23.7921 25.9198C23.6639 25.9728 23.5267 26.0001 23.388 26H8.61058C8.47194 26.0001 8.33465 25.9728 8.20655 25.9198C8.07844 25.8668 7.96204 25.7891 7.86398 25.6911C7.76593 25.5931 7.68814 25.4767 7.63507 25.3486C7.582 25.2205 7.55469 25.0833 7.55469 24.9446C7.55462 23.9742 7.7457 23.0133 8.11702 22.1168C8.48834 21.2203 9.03263 20.4057 9.71879 19.7195C10.405 19.0333 11.2196 18.489 12.1161 18.1177C13.0126 17.7464 13.9735 17.5553 14.9439 17.5554Z" stroke="#161616" stroke-width="1.2" stroke-linecap="round" stroke-linejoin="round"/>
<path d="M15.9986 17.5554C18.9135 17.5554 21.2766 15.1928 21.2766 12.2779C21.2766 9.36309 18.9135 7 15.9986 7C13.0838 7 10.7207 9.36309 10.7207 12.2779C10.7207 15.1928 13.0838 17.5554 15.9986 17.5554Z" stroke="#161616" stroke-width="1.2" stroke-linecap="round" stroke-linejoin="round"/>
</svg>
